<svg width="21" height="26" viewBox="0 0 21 26" fill="none" xmlns="http://www.w3.org/2000/svg">
<g clip-path="url(#clip0_41_6)">
<path d="M1 22C1 21.2044 1.31278 20.4413 1.86953 19.8787C2.42628 19.3161 3.18139 19 3.96875 19H20" stroke="url(#paint0_linear_41_6)" stroke-width="2" stroke-linecap="round" stroke-linejoin="round"/>
<path d="M3.96875 1H20V25H3.96875C3.18139 25 2.42628 24.6839 1.86953 24.1213C1.31278 23.5587 1 22.7957 1 22V4C1 3.20435 1.31278 2.44129 1.86953 1.87868C2.42628 1.31607 3.18139 1 3.96875 1Z" stroke="url(#paint1_linear_41_6)" stroke-width="2" stroke-linecap="round" stroke-linejoin="round"/>
<path d="M11 7L13 9L17 5" stroke="url(#paint2_linear_41_6)" stroke-width="2" stroke-linecap="round" stroke-linejoin="round"/>
</g>
<defs>
<linearGradient id="paint0_linear_41_6" x1="10.5" y1="19" x2="10.5" y2="22" gradientUnits="userSpaceOnUse">
<stop stop-color="white"/>
<stop offset="1" stop-color="#999999"/>
</linearGradient>
<linearGradient id="paint1_linear_41_6" x1="10.5" y1="1" x2="10.5" y2="25" gradientUnits="userSpaceOnUse">
<stop stop-color="white"/>
<stop offset="1" stop-color="#999999"/>
</linearGradient>
<linearGradient id="paint2_linear_41_6" x1="14" y1="5" x2="14" y2="9" gradientUnits="userSpaceOnUse">
<stop stop-color="white"/>
<stop offset="1" stop-color="#999999"/>
</linearGradient>
<clipPath id="clip0_41_6">
<rect width="21" height="26" fill="white"/>
</clipPath>
</defs>
</svg>
