<svg width="21" height="21" viewBox="0 0 21 21" fill="none" xmlns="http://www.w3.org/2000/svg">
<g clip-path="url(#clip0_52_22)">
<mask id="mask0_52_22" style="mask-type:luminance" maskUnits="userSpaceOnUse" x="0" y="9" width="21" height="13">
<path d="M6.61816 9.65643C7.5907 10.7827 9.0425 11.4788 10.6494 11.4377C12.154 11.3991 13.4937 10.7206 14.416 9.6701C18.2752 11.2253 21 15.0074 21 19.4221C21 20.2928 20.2946 21.0001 19.4238 21.0002H1.57715C0.706314 21.0002 0 20.2929 0 19.4221C4.70532e-05 14.9946 2.74111 11.2032 6.61816 9.65643Z" fill="white"/>
</mask>
<g mask="url(#mask0_52_22)">
<path d="M6.61816 9.65644L8.13189 8.3493L7.20059 7.27081L5.87708 7.79881L6.61816 9.65644ZM14.416 9.67011L15.1636 7.81508L13.8485 7.28513L12.9131 8.35056L14.416 9.67011ZM6.61816 9.65644L5.10443 10.9636C6.45319 12.5255 8.47154 13.4941 10.7006 13.437L10.6494 11.4377L10.5982 9.43835C9.61347 9.46355 8.72821 9.03986 8.13189 8.3493L6.61816 9.65644ZM10.6494 11.4377L10.7006 13.437C12.7879 13.3835 14.6457 12.4398 15.9189 10.9897L14.416 9.67011L12.9131 8.35056C12.3417 9.00137 11.52 9.41471 10.5982 9.43835L10.6494 11.4377ZM14.416 9.67011L13.6685 11.5251C16.7968 12.7858 19 15.851 19 19.4221H21H23C22.9999 14.164 19.7536 9.66484 15.1636 7.81508L14.416 9.67011ZM21 19.4221H19C19 19.1913 19.1869 19.0002 19.4237 19.0002L19.4238 21.0002V23.0002C21.4021 23 23 21.3944 23 19.4221H21ZM19.4238 21.0002L19.4237 19.0002H1.57715V21.0002V23.0002H19.4238V21.0002ZM1.57715 21.0002V19.0002C1.8125 19.0002 2 19.1899 2 19.4221H0L-2 19.422C-2 21.3957 -0.399867 23.0002 1.57715 23.0002V21.0002ZM0 19.4221H2C2.00004 15.8407 4.21644 12.7679 7.35925 11.5141L6.61816 9.65644L5.87708 7.79881C1.26577 9.63846 -1.99994 14.1485 -2 19.422L0 19.4221Z" fill="#294373" fill-opacity="0.6"/>
</g>
<path d="M10.5 1C12.8348 1 14.75 2.92173 14.75 5.32031C14.75 7.71888 12.8348 9.64062 10.5 9.64062C8.16526 9.64056 6.25002 7.71883 6.25 5.32031C6.25 2.92177 8.16525 1.00007 10.5 1Z" stroke="#294373" stroke-opacity="0.6" stroke-width="2"/>
</g>
<defs>
<clipPath id="clip0_52_22">
<rect width="21" height="21" fill="white"/>
</clipPath>
</defs>
</svg>
